<?xml version="1.0" encoding="UTF-8"?>
<svg xmlns="http://www.w3.org/2000/svg" width="920" height="420" viewBox="0 0 920 420">
<rect width="100%" height="100%" fill="#ffffff"/>
<text x="150" y="30" font-family="Arial, sans-serif" font-size="20" font-weight="700">Predicted emotion distribution - hybrid</text>
<text x="22" y="79" font-family="Arial, sans-serif" font-size="14" fill="#222">anger</text>
<rect x="150" y="58" width="730" height="24" rx="3" fill="#eeeeee"/>
<rect x="150" y="58" width="365" height="24" rx="3" fill="#d73027"/>
<text x="523" y="75" font-family="Arial, sans-serif" font-size="13" fill="#222">3</text>
<text x="22" y="117" font-family="Arial, sans-serif" font-size="14" fill="#222">anticipation</text>
<rect x="150" y="96" width="730" height="24" rx="3" fill="#eeeeee"/>
<rect x="150" y="96" width="121" height="24" rx="3" fill="#fdae61"/>
<text x="279" y="113" font-family="Arial, sans-serif" font-size="13" fill="#222">1</text>
<text x="22" y="155" font-family="Arial, sans-serif" font-size="14" fill="#222">disgust</text>
<rect x="150" y="134" width="730" height="24" rx="3" fill="#eeeeee"/>
<rect x="150" y="134" width="365" height="24" rx="3" fill="#7f3b08"/>
<text x="523" y="151" font-family="Arial, sans-serif" font-size="13" fill="#222">3</text>
<text x="22" y="193" font-family="Arial, sans-serif" font-size="14" fill="#222">fear</text>
<rect x="150" y="172" width="730" height="24" rx="3" fill="#eeeeee"/>
<rect x="150" y="172" width="730" height="24" rx="3" fill="#6a51a3"/>
<text x="888" y="189" font-family="Arial, sans-serif" font-size="13" fill="#222">6</text>
<text x="22" y="231" font-family="Arial, sans-serif" font-size="14" fill="#222">joy</text>
<rect x="150" y="210" width="730" height="24" rx="3" fill="#eeeeee"/>
<rect x="150" y="210" width="365" height="24" rx="3" fill="#1a9850"/>
<text x="523" y="227" font-family="Arial, sans-serif" font-size="13" fill="#222">3</text>
<text x="22" y="269" font-family="Arial, sans-serif" font-size="14" fill="#222">sadness</text>
<rect x="150" y="248" width="730" height="24" rx="3" fill="#eeeeee"/>
<rect x="150" y="248" width="365" height="24" rx="3" fill="#4575b4"/>
<text x="523" y="265" font-family="Arial, sans-serif" font-size="13" fill="#222">3</text>
<text x="22" y="307" font-family="Arial, sans-serif" font-size="14" fill="#222">surprise</text>
<rect x="150" y="286" width="730" height="24" rx="3" fill="#eeeeee"/>
<rect x="150" y="286" width="365" height="24" rx="3" fill="#00a6d6"/>
<text x="523" y="303" font-family="Arial, sans-serif" font-size="13" fill="#222">3</text>
<text x="22" y="345" font-family="Arial, sans-serif" font-size="14" fill="#222">trust</text>
<rect x="150" y="324" width="730" height="24" rx="3" fill="#eeeeee"/>
<rect x="150" y="324" width="243" height="24" rx="3" fill="#66bd63"/>
<text x="401" y="341" font-family="Arial, sans-serif" font-size="13" fill="#222">2</text>
</svg>